<?xml version="1.0" encoding="UTF-8"?>
<svg id="Layer_1" xmlns="http://www.w3.org/2000/svg" viewBox="0 0 129.75 35.47">
  <defs>
    <style>
      .cls-1 {
        fill: #fff;
      }
    </style>
  </defs>
  <path class="cls-1" d="M0,0h10.96v12.41h11.98V0h11.01v35.47h-11.01v-14.35h-11.98v14.35H0V0Z"/>
  <g>
    <path class="cls-1" d="M48.02,13.23l-5.23-.55c.2-.91.48-1.63.85-2.16.37-.52.91-.98,1.61-1.36.5-.28,1.19-.49,2.07-.65.88-.15,1.83-.23,2.85-.23,1.64,0,2.96.09,3.95.28.99.18,1.82.57,2.49,1.15.47.4.83.97,1.1,1.71.27.74.4,1.44.4,2.12v6.3c0,.67.04,1.2.13,1.58.08.38.27.87.56,1.46h-5.13c-.21-.37-.34-.65-.4-.84-.06-.19-.13-.5-.19-.91-.72.69-1.43,1.18-2.14,1.48-.97.39-2.09.59-3.37.59-1.7,0-3-.39-3.88-1.18-.88-.79-1.32-1.76-1.32-2.92,0-1.08.32-1.98.95-2.68s1.81-1.22,3.52-1.56c2.05-.41,3.38-.7,3.99-.87.61-.17,1.25-.38,1.94-.65,0-.67-.14-1.14-.42-1.41-.28-.27-.77-.4-1.46-.4-.9,0-1.57.14-2.02.43-.35.22-.63.65-.85,1.26ZM52.77,16.11c-.75.27-1.54.51-2.35.71-1.11.3-1.81.59-2.11.87-.31.3-.46.63-.46,1.01,0,.43.15.78.45,1.05.3.27.74.41,1.32.41s1.18-.15,1.7-.44c.52-.3.9-.66,1.12-1.08s.33-.98.33-1.66v-.87Z"/>
    <path class="cls-1" d="M61.4,8.61h5.09v2.33c.76-.95,1.53-1.63,2.31-2.04s1.73-.61,2.85-.61c1.52,0,2.7.45,3.56,1.35s1.28,2.29,1.28,4.17v9.07h-5.5v-7.85c0-.9-.17-1.53-.5-1.9-.33-.37-.8-.56-1.4-.56-.66,0-1.2.25-1.61.75-.41.5-.62,1.4-.62,2.7v6.86h-5.47v-14.28Z"/>
    <path class="cls-1" d="M79.76,3.18h5.59v10.17l4.09-4.74h6.74l-5.12,5,5.42,9.28h-6.17l-2.89-5.72-2.06,2.01v3.71h-5.59V3.18Z"/>
    <path class="cls-1" d="M103.11,13.23l-5.23-.55c.2-.91.48-1.63.85-2.16.37-.52.91-.98,1.61-1.36.5-.28,1.19-.49,2.07-.65.88-.15,1.83-.23,2.85-.23,1.64,0,2.96.09,3.95.28.99.18,1.82.57,2.49,1.15.47.4.83.97,1.1,1.71.27.74.4,1.44.4,2.12v6.3c0,.67.04,1.2.13,1.58.08.38.27.87.56,1.46h-5.13c-.21-.37-.34-.65-.4-.84-.06-.19-.13-.5-.19-.91-.72.69-1.43,1.18-2.14,1.48-.97.39-2.09.59-3.37.59-1.7,0-3-.39-3.88-1.18-.88-.79-1.32-1.76-1.32-2.92,0-1.08.32-1.98.95-2.68.64-.7,1.81-1.22,3.52-1.56,2.05-.41,3.38-.7,3.99-.87.61-.17,1.25-.38,1.94-.65,0-.67-.14-1.14-.42-1.41-.28-.27-.77-.4-1.47-.4-.9,0-1.57.14-2.02.43-.35.22-.63.65-.85,1.26ZM107.86,16.11c-.75.27-1.54.51-2.35.71-1.11.3-1.81.59-2.11.87-.3.3-.46.63-.46,1.01,0,.43.15.78.45,1.05.3.27.74.41,1.32.41s1.18-.15,1.7-.44.9-.66,1.12-1.08.33-.98.33-1.66v-.87Z"/>
    <path class="cls-1" d="M116.54,8.61h5.12v2.34c.49-1.01,1-1.71,1.53-2.09.52-.38,1.17-.57,1.94-.57s1.69.25,2.65.75l-1.69,3.9c-.65-.27-1.16-.4-1.53-.4-.72,0-1.27.3-1.67.89-.57.83-.85,2.39-.85,4.68v4.79h-5.5v-14.28Z"/>
  </g>
  <rect class="cls-1" x="40.08" y="27.86" width="89.67" height="2"/>
</svg>